<svg xmlns="http://www.w3.org/2000/svg" width="102" height="36" viewBox="0 0 102 36" fill="none">
<path d="M24.0516 9H15.0258V18H6V27H15.0258V18L17.2823 18C21.0209 18 24.0516 21.0221 24.0516 24.75V27H33.0774V18H30.821C27.0823 18 24.0516 14.9779 24.0516 11.25V9Z" fill="#1C1917"/>
<path d="M52.0759 11.79H54.8051V14.0261H52.0759V11.79Z" fill="#1C1917"/>
<path d="M67.0946 17.8569C67.3032 18.1689 67.4075 18.5849 67.4075 19.1049V24.2705H70.1367V18.7756C70.1367 17.5622 69.8586 16.6377 69.3023 16.0022C68.746 15.3666 68.0101 15.0488 67.0946 15.0488C66.4688 15.0488 65.8951 15.199 65.3736 15.4995C64.8637 15.7999 64.4349 16.1986 64.0872 16.6955C63.8322 16.1524 63.473 15.7422 63.0094 15.4648C62.5458 15.1875 62.0185 15.0488 61.4275 15.0488C60.8364 15.0488 60.3149 15.1817 59.863 15.4475C59.4226 15.7133 59.0517 16.0773 58.7504 16.5395V15.2568H56.0907V24.2705H58.8199V19.3823C58.8199 18.7352 58.9648 18.244 59.2545 17.9089C59.5443 17.5622 59.9325 17.3889 60.4192 17.3889C60.8828 17.3889 61.2189 17.5449 61.4275 17.8569C61.6477 18.1689 61.7578 18.5849 61.7578 19.1049V24.2705H64.487V19.3823C64.487 18.7352 64.6319 18.244 64.9216 17.9089C65.2113 17.5622 65.5996 17.3889 66.0863 17.3889C66.5499 17.3889 66.886 17.5449 67.0946 17.8569Z" fill="#1C1917"/>
<path fill-rule="evenodd" clip-rule="evenodd" d="M75.8959 24.2185C76.3595 24.0336 76.7767 23.7331 77.1475 23.3171V24.2705H79.7377V17.8049C79.7377 16.9382 79.39 16.2622 78.6947 15.7768C78.0109 15.2915 76.9969 15.0488 75.6525 15.0488C74.4125 15.0488 73.4042 15.3204 72.6278 15.8635C71.8513 16.4066 71.4573 17.1867 71.4457 18.2036H74.1575C74.1691 17.8453 74.3082 17.5622 74.5747 17.3542C74.8529 17.1462 75.2237 17.0422 75.6873 17.0422C76.1972 17.0422 76.5565 17.1404 76.7651 17.3369C76.9737 17.5218 77.078 17.7876 77.078 18.1342V18.4983L74.6095 18.9143C73.3115 19.1338 72.3786 19.4574 71.8107 19.885C71.2544 20.301 70.9763 20.9077 70.9763 21.705C70.9763 22.5833 71.2776 23.2651 71.8803 23.7505C72.4945 24.2358 73.2999 24.4785 74.2966 24.4785C74.9108 24.4785 75.4439 24.3918 75.8959 24.2185ZM74.088 22.3464C73.8678 22.1615 73.7577 21.9131 73.7577 21.601C73.7577 21.289 73.8678 21.0579 74.088 20.9077C74.3082 20.7575 74.6674 20.6361 75.1658 20.5437L77.078 20.1623V20.8383C77.078 21.4277 76.8868 21.8726 76.5043 22.1731C76.1219 22.462 75.6467 22.6064 75.0789 22.6064C74.6501 22.6064 74.3198 22.5197 74.088 22.3464Z" fill="#1C1917"/>
<path fill-rule="evenodd" clip-rule="evenodd" d="M93.4098 23.3171C93.039 23.7331 92.6218 24.0336 92.1582 24.2185C91.7062 24.3918 91.1731 24.4785 90.5589 24.4785C89.5622 24.4785 88.7568 24.2358 88.1426 23.7505C87.5399 23.2651 87.2386 22.5833 87.2386 21.705C87.2386 20.9077 87.5168 20.301 88.073 19.885C88.6409 19.4574 89.5738 19.1338 90.8718 18.9143L93.3403 18.4983V18.1342C93.3403 17.7876 93.236 17.5218 93.0274 17.3369C92.8188 17.1404 92.4595 17.0422 91.9496 17.0422C91.486 17.0422 91.1152 17.1462 90.837 17.3542C90.5705 17.5622 90.4314 17.8453 90.4198 18.2036H87.708C87.7196 17.1867 88.1136 16.4066 88.8901 15.8635C89.6665 15.3204 90.6748 15.0488 91.9148 15.0488C93.2592 15.0488 94.2732 15.2915 94.957 15.7768C95.6523 16.2622 96 16.9382 96 17.8049V24.2705H93.4098V23.3171ZM90.02 21.601C90.02 21.9131 90.1301 22.1615 90.3503 22.3464C90.5821 22.5197 90.9124 22.6064 91.3412 22.6064C91.909 22.6064 92.3842 22.462 92.7666 22.1731C93.1491 21.8726 93.3403 21.4277 93.3403 20.8383V20.1623L91.4281 20.5437C90.9298 20.6361 90.5705 20.7575 90.3503 20.9077C90.1301 21.0579 90.02 21.289 90.02 21.601Z" fill="#1C1917"/>
<path d="M83.4669 15.2568H80.8072V24.2705H83.5364V20.249C83.5364 19.3014 83.7392 18.6312 84.1449 18.2382C84.5505 17.8338 85.1531 17.6316 85.9528 17.6316H86.8219V15.1528H86.0744C84.846 15.1528 83.9768 15.7364 83.4669 16.9035V15.2568Z" fill="#1C1917"/>
<path d="M54.8051 15.2568H52.0759V24.2705H54.8051V15.2568Z" fill="#1C1917"/>
<path d="M48.0832 19.1049C48.0832 17.9609 47.5849 17.3889 46.5882 17.3889C46.0899 17.3889 45.6727 17.5622 45.3366 17.9089C45.0005 18.244 44.8325 18.7352 44.8325 19.3823V24.2705H42.1032V15.2568H44.7629V16.4702C45.099 16.0311 45.5046 15.6844 45.9798 15.4301C46.4549 15.1759 46.9938 15.0488 47.5965 15.0488C48.5931 15.0488 49.3754 15.3666 49.9433 16.0022C50.5227 16.6262 50.8124 17.5507 50.8124 18.7756V24.2705H48.0832V19.1049Z" fill="#1C1917"/>
</svg>