<?xml version="1.0" encoding="UTF-8" standalone="no"?><!DOCTYPE svg PUBLIC "-//W3C//DTD SVG 1.1//EN" "http://www.w3.org/Graphics/SVG/1.1/DTD/svg11.dtd"><svg width="100%" height="100%" viewBox="0 0 150 150" version="1.1" xmlns="http://www.w3.org/2000/svg" xml:space="preserve" style="fill-rule:evenodd;clip-rule:evenodd;stroke-linejoin:round;stroke-miterlimit:2;"><g><rect x="0" y="0" width="150" height="150"/><g><path d="M116.209,45.347l-29.653,-0l29.653,59.306l29.654,0l-29.654,-59.306Z" style="fill:#fff;fill-rule:nonzero;"/><path d="M18.964,75c-8.189,0 -14.827,6.638 -14.827,14.827c0,8.188 6.638,14.826 14.827,14.826c8.188,0 14.827,-6.638 14.827,-14.826c-0,-8.189 -6.639,-14.827 -14.827,-14.827Z" style="fill:#fff;fill-rule:nonzero;"/><path d="M33.791,45.347l29.653,-0l0,12.21c0,9.633 7.809,17.443 17.443,17.443l12.21,0l0,29.653l-29.653,0l0,-12.21c0,-9.633 -7.81,-17.443 -17.443,-17.443l-12.21,0l-0,-29.653Z" style="fill:#fff;fill-rule:nonzero;"/></g></g></svg>
